<svg width="40" height="40" viewBox="0 0 40 40" fill="none" xmlns="http://www.w3.org/2000/svg">
<path id="Vector" d="M16.6518 23.3036C16.6518 25.0268 15.4018 25.5714 13.8661 25.5714H9.83929V20.8482H13.9464C15.6071 20.8571 16.6518 21.5446 16.6518 23.3036ZM15.9643 15.9554C15.9643 14.375 14.7411 14 13.3839 14H9.84821V18H13.6607C15.0089 18 15.9643 17.4107 15.9643 15.9554ZM27.7768 18.0268C26.1429 18.0268 25.0536 19.0446 24.9464 20.6786H30.5C30.3482 19.0268 29.4911 18.0268 27.7768 18.0268ZM40 4.28571V35.7143C40 38.0804 38.0804 40 35.7143 40H4.28571C1.91964 40 0 38.0804 0 35.7143V4.28571C0 1.91964 1.91964 0 4.28571 0H35.7143C38.0804 0 40 1.91964 40 4.28571ZM24.2589 13.6607H31.2054V11.9732H24.2589V13.6607ZM20.4196 23.5089C20.4196 21.3571 19.4018 19.5 17.2946 18.9018C18.8304 18.1696 19.6339 17.3214 19.6339 15.5982C19.6339 12.1875 17.0893 11.3571 14.1518 11.3571H6.07143V28.5H14.3839C17.5 28.4821 20.4196 26.9911 20.4196 23.5089ZM33.9286 22.1875C33.9286 18.5179 31.7768 15.4554 27.8929 15.4554C24.1071 15.4554 21.5446 18.2946 21.5446 22.0268C21.5446 25.8929 23.9821 28.5446 27.8929 28.5446C30.8571 28.5446 32.7768 27.2143 33.7054 24.3661H30.6964C30.3661 25.4286 29.0357 25.9821 28 25.9821C26 25.9821 24.9554 24.8125 24.9554 22.8304H33.9018C33.9107 22.625 33.9286 22.4018 33.9286 22.1875Z" fill="#1E26DD"/>
</svg>
