<svg width="40" height="40" viewBox="0 0 40 40" fill="none" xmlns="http://www.w3.org/2000/svg">
<path id="Vector" d="M8.05357 17.5179C8.84821 13.7321 11.3929 10.5804 14.8125 8.97321C15.1339 9.41071 17.3125 12.4375 19.3393 16.0268C13.625 17.5446 8.59821 17.5268 8.05357 17.5179ZM28.0893 10.8929C25.0893 8.23214 21.0089 7.22321 17.1429 8.16071C17.4821 8.61607 19.6964 11.6339 21.6964 15.3036C26.0357 13.6696 27.8661 11.2054 28.0893 10.8929ZM12.5089 29.6429C16.125 32.4643 20.8393 32.9196 24.7679 31.25C24.5893 30.1786 23.875 26.4464 22.1607 22C17.2411 23.6786 13.7857 27.0357 12.5089 29.6429ZM21.3304 19.9821C21.0268 19.2857 20.6875 18.5982 20.3393 17.9107C14.25 19.7321 8.33929 19.6607 7.80357 19.6429C7.80357 19.7679 7.79464 19.8929 7.79464 20.0179C7.79464 23.1518 8.98214 26.0089 10.9286 28.1786C12.9107 24.7946 16.9196 21.2232 21.3304 19.9821ZM24.4464 21.4375C26.0446 25.8214 26.6875 29.3929 26.8125 30.1339C29.5536 28.2857 31.5 25.3482 32.0446 21.9554C31.6339 21.8214 28.2679 20.8214 24.4464 21.4375ZM22.6339 17.1161C23.0625 17.9911 23.375 18.7054 23.7054 19.5089C27.7679 19 31.8036 19.8125 32.2054 19.9018C32.1786 17.0179 31.1518 14.375 29.4464 12.3036C29.1875 12.6518 27.1429 15.2679 22.6339 17.1161ZM40 4.28571V35.7143C40 38.0804 38.0804 40 35.7143 40H4.28571C1.91964 40 0 38.0804 0 35.7143V4.28571C0 1.91964 1.91964 0 4.28571 0H35.7143C38.0804 0 40 1.91964 40 4.28571ZM34.2857 20C34.2857 12.125 27.875 5.71429 20 5.71429C12.125 5.71429 5.71429 12.125 5.71429 20C5.71429 27.875 12.125 34.2857 20 34.2857C27.875 34.2857 34.2857 27.875 34.2857 20Z" fill="#1E26DD"/>
</svg>
