<svg width="40" height="40" viewBox="0 0 40 40" fill="none" xmlns="http://www.w3.org/2000/svg">
<path id="Vector" d="M4 0C1.79086 0 0 1.79086 0 4V36C0 38.2091 1.79086 40 4 40H36C38.2091 40 40 38.2091 40 36V4C40 1.79086 38.2091 0 36 0H4ZM33.2321 9.47322L31.0893 11.5268C30.9018 11.6696 30.8125 11.9018 30.8482 12.125V27.2411C30.8125 27.4732 30.9018 27.7054 31.0893 27.8393L33.1875 29.8929V30.3482H22.6518V29.9107L24.8214 27.8036C25.0357 27.5893 25.0357 27.5268 25.0357 27.2054C25.0357 22.4319 25.0357 19.7556 25.0357 14.9821C25.0357 10.2087 19 30.3036 19 30.3036H18.1875L11.1607 14.9821V25.25C11.0982 25.6786 11.25 26.1161 11.5536 26.4286L14.375 29.8482V30.3036H6.35714V29.8482L9.17857 26.4286C9.48214 26.1161 9.61607 25.6786 9.54464 25.25V13.375C9.58036 13.0446 9.45536 12.7232 9.20536 12.5L6.69643 9.47322V9.01786H14.4911C16.8412 14.1784 20.5 22.5 20.5089 22.2321C20.5179 21.9643 25.8036 9.02679 25.8036 9.02679H33.2321V9.47322Z" fill="#1E26DD"/>
</svg>
